<svg xmlns="http://www.w3.org/2000/svg" fill="none" viewBox="0 0 126 145"><path fill="#fff" d="M86.872 50.418c4.673 1.26 9.527 2.53 14.296 1.708 4.581-.789 8.838-3.651 10.985-7.772 2.148-4.12 1.99-9.435-.681-13.236-2.377-3.382-6.38-5.296-10.414-6.203-5.918-1.33-12.653.498-18.602-.68-3.227-.638-5.925-3.07-9.186-2.643-4.523.591-8.124 4.095-10.678 7.872-1.249 1.847-2.348 3.84-2.82 6.018s-.258 4.575.962 6.441c2.054 3.14 3.518 2.68 6.883 3.587 5.048 1.36 14.206 3.55 19.255 4.91z"/><path fill="#5C5C5C" d="M98 52.865c-3.891 0-7.754-1.04-11.252-1.983-2.52-.679-6.128-1.58-9.617-2.452-3.495-.873-7.11-1.776-9.639-2.457a32 32 0 0 0-1.935-.445c-2.114-.435-3.51-.723-5.224-3.343-1.195-1.827-1.57-4.308-1.03-6.805.546-2.516 1.912-4.736 2.892-6.186 2.246-3.323 5.98-7.42 11.013-8.078 2.107-.276 3.986.562 5.801 1.372 1.14.51 2.32 1.035 3.54 1.276 2.844.563 5.954.422 8.963.284 3.224-.146 6.557-.297 9.652.398 6.092 1.369 9.182 4.233 10.702 6.395 2.704 3.847 2.991 9.367.714 13.734-2.145 4.114-6.486 7.19-11.33 8.022-1.08.187-2.167.267-3.25.267zM74.042 22.022q-.351-.001-.708.046c-4.68.611-8.207 4.505-10.342 7.664-.936 1.385-2.24 3.498-2.749 5.852-.487 2.247-.16 4.463.895 6.076 1.495 2.286 2.602 2.514 4.613 2.928.581.12 1.24.256 1.992.458 2.52.68 6.13 1.581 9.622 2.453 3.493.873 7.105 1.775 9.633 2.457 3.438.926 7.237 1.95 11.01 1.95 1.031 0 2.06-.077 3.08-.252 4.555-.785 8.632-3.666 10.641-7.52 2.115-4.059 1.855-9.178-.649-12.739-2.576-3.666-6.929-5.292-10.126-6.01-2.97-.668-6.237-.519-9.398-.376-3.065.14-6.234.284-9.192-.302-1.327-.262-2.556-.811-3.745-1.341-1.542-.689-3.01-1.343-4.577-1.343z"/><path fill="#5C5C5C" d="M85.845 49.148a.48.48 0 0 1-.379-.183c-.45-.574-.643-1.321-.541-2.102.111-.859.576-1.673 1.243-2.177a.48.48 0 1 1 .578.766c-.465.352-.79.926-.87 1.535-.068.523.055 1.016.345 1.386a.479.479 0 0 1-.377.776m32.876-28.913a.48.48 0 0 1-.299-.856c2.023-1.599 2.953-4.333 2.21-6.5a.48.48 0 0 1 .908-.312c.87 2.54-.191 5.722-2.524 7.564a.48.48 0 0 1-.297.104z"/><path fill="#5C5C5C" d="M122.153 17.146c-.86 0-1.849-.194-2.968-.747a.48.48 0 1 1 .425-.861c2.411 1.192 4.078.455 5.181-.033l.298-.13a.479.479 0 1 1 .374.884q-.134.057-.284.124c-.716.317-1.724.762-3.027.762zm-2.42 19.924-.067-.005c-1.472-.207-2.856-.99-3.893-2.203-1.039-1.213-1.597-2.7-1.572-4.186a.479.479 0 1 1 .959.016c-.044 2.58 2.08 5.064 4.639 5.422a.48.48 0 0 1-.067.957z"/><path fill="#5C5C5C" d="M114.931 35.397a14.5 14.5 0 0 1-.906 6.69c-.819 2.11-2.21 3.664-3.81 5.222-1.038 1.011-2.119 2.079-2.777 3.384-.452.896-1.799 3.671-2.435 6.16a13.42 13.42 0 0 1-4.985-8.422 13.4 13.4 0 0 1 .659-6.648c.239-.655 1.943-4.282 3.166-3.863-3.022-1.033-6.06-2.575-8.511-4.644-2.058-1.736-3.64-3.592-6.528-3.826-1.683-.137-5.303 1.253-5.06 3.557-.2-1.896.663-3.87 2.19-5.01 1.527-1.142 3.665-1.412 5.429-.685-3.44.24-5.938-1.326-8.908-3.076 5.448-3.613 10.518-6.517 17.027-5.893 4.137.396 8.02 2.58 10.735 5.726s4.289 7.197 4.712 11.329z"/><path fill="#5C5C5C" d="M105.003 57.333a.5.5 0 0 1-.294-.101 13.9 13.9 0 0 1-5.164-8.726 13.84 13.84 0 0 1 .682-6.888c.013-.036 1.018-2.548 2.279-3.675-2.884-1.113-5.452-2.587-7.482-4.302-.339-.286-.666-.577-.983-.857-1.618-1.435-3.015-2.675-5.274-2.858-1.072-.086-2.95.515-3.928 1.517-.463.473-.67.98-.617 1.506v.005a.48.48 0 1 1-.954.1c-.217-2.064.718-4.201 2.38-5.445a6 6 0 0 1 1.009-.602c-1.379-.55-2.694-1.327-4.102-2.158l-.341-.201a.48.48 0 0 1-.022-.813c5.299-3.515 10.612-6.616 17.337-5.971 4.136.396 8.165 2.543 11.054 5.89 2.663 3.086 4.376 7.203 4.826 11.594a14.96 14.96 0 0 1-.936 6.913c-.816 2.1-2.16 3.675-3.923 5.392-.959.934-2.046 1.992-2.684 3.257-.404.8-1.771 3.604-2.398 6.06a.48.48 0 0 1-.465.362m-1.361-18.966c-.188 0-.652.27-1.349 1.343-.6.924-1.071 1.978-1.165 2.237a12.9 12.9 0 0 0-.636 6.409c.467 2.945 2 5.698 4.246 7.657.677-2.269 1.791-4.583 2.272-5.536.71-1.409 1.858-2.526 2.871-3.512 1.674-1.63 2.944-3.113 3.698-5.053a14 14 0 0 0 .875-6.467c-.429-4.197-2.062-8.126-4.597-11.065-2.729-3.161-6.526-5.189-10.418-5.562-6.163-.59-10.97 2.044-16.075 5.392 1.655.976 3.188 1.848 4.858 2.306a6.06 6.06 0 0 1 3.327.35.48.48 0 0 1-.15.922 10.1 10.1 0 0 1-3.23-.287 5 5 0 0 0-1.945.877 5.05 5.05 0 0 0-1.553 1.94c1.23-.928 3.036-1.441 4.174-1.35 2.577.21 4.158 1.613 5.832 3.098.313.276.636.563.966.842 2.215 1.869 5.105 3.444 8.357 4.556a.48.48 0 1 1-.311.908.1.1 0 0 0-.045-.007z"/><path fill="#5C5C5C" d="M107.157 15.786c3.067-3.132 7.164-3.092 10.997-1.278 3.721 1.76 7.037 5.475 6.663 9.827-.555 6.472-9.601 9.538-14.264 5.199-1.224-1.139-1.846-2.576-2.697-3.956-.758-1.231-1.853-2.276-2.367-3.647-.74-1.971-.025-4.28 1.384-5.844q.14-.156.283-.301z"/><path fill="#5C5C5C" d="M115.999 32.032c-2.186 0-4.259-.739-5.772-2.147-.968-.9-1.58-1.977-2.171-3.017-.195-.343-.396-.697-.607-1.039a16 16 0 0 0-.895-1.262c-.572-.753-1.162-1.533-1.513-2.469-.756-2.013-.176-4.5 1.477-6.333q.146-.162.297-.316c1.543-1.575 3.398-2.462 5.515-2.636 1.904-.156 3.933.268 6.03 1.26 3.74 1.771 7.335 5.643 6.936 10.304a7.63 7.63 0 0 1-1.834 4.323c-.979 1.146-2.296 2.06-3.809 2.642a10.2 10.2 0 0 1-3.655.69zm-8.498-15.91q-.136.14-.27.287c-1.394 1.546-1.913 3.697-1.292 5.353.303.805.826 1.495 1.38 2.226.323.427.658.869.947 1.337.22.357.426.718.624 1.068.581 1.023 1.13 1.989 1.991 2.79 2.083 1.937 5.392 2.434 8.427 1.264 2.917-1.126 4.798-3.426 5.032-6.153.36-4.201-2.95-7.724-6.39-9.352-2.372-1.123-6.882-2.462-10.449 1.18"/><path fill="#fff" d="M90.39 34.01c-.779.057-1.458-.756-1.465-1.575-.02-2.39 3.203-2.75 4.946-2.608 1.85.15 4.006 1.406 3.797 3.54-.121 1.246-1.457 2.284-2.559 1.79z"/><path fill="#5C5C5C" d="M95.7 35.762c-.27 0-.538-.055-.786-.166-.242-.109-.35-.393-.242-.635s.392-.35.635-.242c.419.188.824.018 1.029-.1.47-.274.806-.783.857-1.297a2.2 2.2 0 0 0-.527-1.681c-.601-.72-1.713-1.244-2.832-1.334-1.35-.11-3.083.123-3.907.89-.355.328-.524.733-.52 1.237.002.317.153.652.395.875.1.091.301.242.555.224a.48.48 0 1 1 .07.958c-.452.033-.906-.136-1.275-.475a2.2 2.2 0 0 1-.705-1.574c-.005-.777.272-1.432.827-1.948 1.431-1.33 4.115-1.185 4.639-1.142 1.383.112 2.72.755 3.49 1.675.573.686.831 1.513.746 2.39-.08.825-.59 1.605-1.33 2.035a2.2 2.2 0 0 1-1.118.314zm-3.115 15.263a.48.48 0 0 1-.37-.785c.332-.402.46-.963.335-1.468a.48.48 0 0 1 .932-.232 2.68 2.68 0 0 1-.525 2.31.48.48 0 0 1-.37.175zm.483-7.536c-.003.29.175.58.469.5.533-.141.422-1.12-.107-1-.247.055-.358.277-.362.5"/><path fill="#5C5C5C" d="M93.44 44.484a.78.78 0 0 1-.483-.168c-.235-.183-.373-.494-.368-.833.007-.477.302-.864.736-.96.463-.106.887.177 1.008.67.123.5-.095 1.109-.672 1.263a.8.8 0 0 1-.22.03z"/><path fill="#BEFAD6" d="M107.885 71.85a5.2 5.2 0 0 1-.806 2.903c-1.799 2.827-5.553 3.549-8.611 3.599-2.816.046-6.856-.726-7.824-3.906-.874-2.867 1.674-5.683 3.955-6.894.942-.5 1.953-.86 2.992-1.089 1.567-.344 3.218-.404 4.801-.107a9.3 9.3 0 0 1 1.919.562c.758.322 1.457.766 2.041 1.382.902.952 1.503 2.216 1.534 3.55z"/><path fill="#5C5C5C" d="M89.202 73.73c-17.654 3.703-21.38 3.648-20.939 5.978.52 2.749 6.925-.192 22.089-3.212z"/><path fill="#5C5C5C" d="M70.156 81.283c-.71 0-1.244-.117-1.641-.373-.388-.25-.631-.624-.723-1.112-.276-1.457.858-2.06 2.124-2.494 1.578-.541 4.218-1.056 8.591-1.91a739 739 0 0 0 10.596-2.133.48.48 0 0 1 .542.285l1.15 2.766a.48.48 0 0 1-.35.655c-4.917.979-8.892 1.945-12.086 2.722-3.968.965-6.555 1.594-8.203 1.594m18.755-7.002a734 734 0 0 1-10.22 2.054c-4.332.847-6.947 1.357-8.463 1.877-1.651.566-1.567 1.012-1.493 1.406.044.23.137.378.3.484.974.628 4.206-.158 9.098-1.347 3.078-.748 6.878-1.672 11.551-2.616z"/><path fill="#5C5C5C" d="M108.742 66.976c-.776-.82-1.709-1.412-2.717-1.84a12.4 12.4 0 0 0-2.556-.75c-2.107-.394-4.306-.315-6.393.144-1.383.304-2.73.784-3.985 1.45-3.038 1.612-6.431 5.363-5.268 9.18 1.29 4.236 6.67 5.264 10.42 5.203 4.073-.067 9.071-1.028 11.467-4.793a6.9 6.9 0 0 0 1.074-3.866c-.04-1.776-.841-3.46-2.043-4.728zm-.857 4.875a5.2 5.2 0 0 1-.806 2.903c-1.799 2.827-5.553 3.549-8.611 3.599-2.816.046-6.856-.726-7.824-3.906-.874-2.867 1.674-5.684 3.955-6.894.941-.5 1.953-.86 2.992-1.089 1.567-.344 3.218-.404 4.801-.107a9.3 9.3 0 0 1 1.919.562c.757.322 1.457.766 2.041 1.382.902.952 1.503 2.216 1.534 3.55z"/><path fill="#5C5C5C" d="M97.94 80.845c-1.4 0-3.792-.153-6.006-1.025-2.408-.95-3.946-2.47-4.57-4.519-.57-1.867-.183-3.881 1.118-5.824 1.053-1.572 2.65-3 4.383-3.92a16.2 16.2 0 0 1 4.106-1.495c2.217-.487 4.494-.538 6.585-.145.974.182 1.868.444 2.655.778 1.143.485 2.111 1.142 2.879 1.952 1.361 1.436 2.133 3.228 2.175 5.046a7.37 7.37 0 0 1-1.149 4.135c-2.562 4.026-7.867 4.95-11.865 5.016q-.145.003-.311.003zm2.743-16.23c-1.158 0-2.34.128-3.504.384a15.2 15.2 0 0 0-3.863 1.406c-2.55 1.352-6.17 4.888-5.034 8.616.535 1.755 1.882 3.069 4.005 3.906 2.231.88 4.685.976 5.948.956 3.763-.062 8.738-.905 11.07-4.571a6.4 6.4 0 0 0 1-3.597c-.036-1.558-.733-3.165-1.912-4.409-.676-.714-1.537-1.295-2.556-1.728a12 12 0 0 0-2.457-.719 14.7 14.7 0 0 0-2.697-.244m-2.443 14.22c-1.06 0-2.873-.116-4.554-.779-1.844-.727-3.023-1.895-3.503-3.47-.437-1.437-.142-2.985.856-4.474.8-1.196 2.016-2.282 3.334-2.982a12.2 12.2 0 0 1 3.114-1.134c1.68-.37 3.407-.408 4.992-.11.74.138 1.419.337 2.018.592.872.37 1.613.872 2.201 1.493 1.043 1.1 1.634 2.474 1.666 3.87a5.66 5.66 0 0 1-.882 3.171c-1.951 3.068-5.976 3.772-9.007 3.822zm2.06-12.188a12.2 12.2 0 0 0-2.606.286 11.2 11.2 0 0 0-2.87 1.044c-1.88.998-4.553 3.598-3.721 6.33.39 1.28 1.378 2.241 2.937 2.855 1.656.654 3.48.725 4.42.71 2.797-.046 6.491-.67 8.214-3.377a4.7 4.7 0 0 0 .731-2.635c-.025-1.14-.537-2.317-1.402-3.23-.496-.525-1.129-.952-1.88-1.27a9 9 0 0 0-1.82-.534 11 11 0 0 0-2.003-.181z"/><path fill="#fff" d="M22.495 122.203c-.162 4.293-.18 13.853.125 13.17 0 0 1.95 2.8 2.792 2.991 5.038 1.139 10.278.695 15.163-1.287.52-.211 1.065-.463 1.411-1.014.645-1.026.295-2.681-.474-3.546s-1.813-1.138-2.81-1.361c-.996-.223-2.04-.448-2.85-1.248-1.14-1.129-1.547-3.145-1.61-5.022-.065-1.876.135-3.776-.12-5.624-3.763.746-7.595.87-11.38.37-.17.721-.22 1.819-.247 2.572z"/><path fill="#5C5C5C" d="M30.93 139.461a25.5 25.5 0 0 1-5.625-.629c-.876-.198-2.347-2.152-2.948-2.997-.322-.15-.353-.598-.4-1.918-.033-.874-.052-2.114-.057-3.583-.008-2.827.038-6.1.115-8.148.036-.964.093-1.954.259-2.663a.48.48 0 0 1 .53-.366 34.4 34.4 0 0 0 11.223-.365.476.476 0 0 1 .568.405c.167 1.206.146 2.436.125 3.626-.011.674-.024 1.371 0 2.048.074 2.164.596 3.832 1.47 4.696.7.694 1.615.898 2.582 1.114l.034.008c1.087.243 2.218.559 3.064 1.511.88.99 1.3 2.882.522 4.119-.422.669-1.066.973-1.637 1.205a26.1 26.1 0 0 1-9.825 1.938zm-7.943-4.397.027.035c1 1.435 2.146 2.716 2.504 2.796 4.94 1.118 10.084.682 14.876-1.262.471-.191.916-.398 1.185-.826.525-.834.209-2.257-.426-2.97-.657-.739-1.547-.986-2.556-1.211l-.034-.008c-1.008-.225-2.151-.48-3.049-1.368-1.344-1.33-1.696-3.641-1.754-5.346-.024-.702-.011-1.411 0-2.098.018-.984.036-1.996-.057-2.976a35.3 35.3 0 0 1-10.575.335c-.104.699-.138 1.587-.155 2.058-.175 4.642-.139 11.614.013 12.842z"/><path fill="#5C5C5C" d="M52.471 139.415c-9.034.441-18.08.637-27.106.066-1.155-.073-2.44.006-3.163-1.08-.786-1.18-.341-3.683-.341-3.683 6.97.291 13.811.136 20.774-.354-1.998.201-4.137.067-5.808-1.268-.733-.586-1.38-1.778-.865-2.636.364-.606 1.089-.649 1.71-.628 4.08.14 8.67 1.203 12.587 2.715 1.276.492 2.644 1.334 3.407 2.709.756 1.364.71 4.067-1.195 4.16z"/><path fill="#5C5C5C" d="M37.275 140.313c-3.852 0-7.88-.097-11.94-.353l-.403-.021c-1.105-.052-2.357-.111-3.13-1.271-.867-1.303-.462-3.757-.413-4.033a.48.48 0 0 1 .492-.395 177 177 0 0 0 15.753-.062 6 6 0 0 1-1.107-.706c-.974-.779-1.606-2.211-.977-3.259.549-.915 1.662-.876 2.138-.86 3.925.136 8.57 1.137 12.743 2.747 1.18.455 2.771 1.332 3.653 2.924.552.995.753 2.689.134 3.802-.369.663-.965 1.032-1.724 1.07-4.392.214-9.618.419-15.22.419zm15.173-1.378.023.479zc.422-.02.727-.209.932-.577.436-.784.283-2.118-.135-2.869-.743-1.341-2.129-2.097-3.16-2.495-4.077-1.573-8.608-2.551-12.43-2.683-.727-.026-1.098.09-1.282.396-.368.614.212 1.581.754 2.015 1.12.895 2.561 1.293 4.493 1.231l.982-.068a.479.479 0 0 1 .082.956q-.53.053-1.021.071c-6.81.448-13.168.547-19.388.304-.093.822-.136 2.224.326 2.919.504.757 1.371.797 2.376.845q.21.01.419.022c9.919.628 19.667.294 27.053-.066z"/><path fill="#fff" d="M14.051 126.389c-.161 4.293-.18 13.852.126 13.17 0 0 1.95 2.799 2.792 2.99 5.038 1.14 10.277.695 15.163-1.286.52-.211 1.064-.464 1.411-1.015.645-1.025.295-2.68-.474-3.545-.77-.865-1.814-1.139-2.81-1.361-.997-.223-2.041-.449-2.85-1.248-1.14-1.129-1.547-3.145-1.611-5.022s.136-3.777-.12-5.625a34.9 34.9 0 0 1-11.38.371c-.169.721-.219 1.818-.247 2.572z"/><path fill="#5C5C5C" d="M22.488 143.646a25.5 25.5 0 0 1-5.625-.629c-.876-.199-2.347-2.152-2.948-2.997-.322-.151-.353-.598-.401-1.918-.032-.875-.051-2.114-.056-3.584-.009-2.826.037-6.1.114-8.147.037-.965.093-1.955.26-2.664a.48.48 0 0 1 .53-.366c3.735.493 7.51.37 11.223-.366a.477.477 0 0 1 .568.405c.167 1.207.146 2.437.125 3.627a39 39 0 0 0 0 2.048c.074 2.164.596 3.832 1.47 4.696.7.693 1.614.898 2.582 1.114l.034.007c1.086.243 2.218.56 3.064 1.511.88.991 1.3 2.882.521 4.12-.421.669-1.065.972-1.637 1.203a26.1 26.1 0 0 1-9.824 1.939zm-7.943-4.397.027.034c.999 1.436 2.145 2.716 2.503 2.797 4.94 1.118 10.085.682 14.876-1.262.472-.192.916-.399 1.186-.826.525-.834.208-2.257-.426-2.97-.657-.739-1.547-.986-2.557-1.212l-.033-.007c-1.008-.225-2.15-.48-3.048-1.368-1.344-1.33-1.697-3.642-1.754-5.347a41 41 0 0 1 0-2.097c.017-.984.034-1.996-.058-2.976a35.4 35.4 0 0 1-10.574.335c-.105.699-.138 1.587-.156 2.057-.174 4.643-.138 11.615.014 12.843z"/><path fill="#5C5C5C" d="M44.029 143.6c-9.035.442-18.08.638-27.106.067-1.155-.073-2.44.005-3.163-1.08-.787-1.18-.341-3.683-.341-3.683 6.97.291 13.811.135 20.774-.354-1.999.2-4.138.067-5.808-1.268-.734-.587-1.38-1.778-.865-2.638.364-.605 1.089-.648 1.71-.627 4.08.14 8.67 1.203 12.586 2.715 1.277.492 2.645 1.334 3.407 2.709.757 1.364.71 4.066-1.194 4.159"/><path fill="#5C5C5C" d="M28.832 144.499c-3.851 0-7.88-.097-11.94-.353a17 17 0 0 0-.402-.021c-1.105-.052-2.357-.112-3.13-1.272-.868-1.303-.462-3.758-.413-4.033a.48.48 0 0 1 .492-.396c5.101.213 10.294.193 15.753-.061a6 6 0 0 1-1.107-.707c-.975-.778-1.607-2.211-.978-3.258.55-.916 1.662-.876 2.138-.86 3.926.135 8.57 1.136 12.743 2.746 1.18.455 2.77 1.332 3.654 2.925.552.995.752 2.688.133 3.802-.368.662-.964 1.032-1.724 1.069-4.392.215-9.617.42-15.22.42zm-15-5.098c-.093.822-.136 2.225.326 2.92.504.756 1.372.798 2.376.845q.21.009.418.022c9.918.628 19.667.294 27.052-.067.423-.02.728-.209.932-.577.437-.784.283-2.117-.134-2.869-.744-1.34-2.13-2.097-3.16-2.494-4.078-1.573-8.608-2.551-12.431-2.683-.727-.025-1.098.089-1.282.395-.368.615.211 1.581.754 2.015 1.119.895 2.563 1.293 4.492 1.232q.49-.032.983-.067a.48.48 0 0 1 .082.956q-.528.054-1.02.07c-6.811.448-13.169.547-19.387.304z"/><path fill="#fff" d="M42.02 57.403c-3.034 22.396-5.094 46.372-6.005 68.953-3.526 1.623-8.173.596-10.964-2.099.268-23.069 6.111-46.495 16.969-66.854"/><path fill="#5C5C5C" d="M32.303 127.611c-.705 0-1.423-.071-2.139-.214-2.075-.416-4.01-1.408-5.446-2.795a.48.48 0 0 1-.147-.351c.135-11.57 1.658-23.196 4.528-34.555 2.895-11.456 7.099-22.397 12.497-32.52a.48.48 0 0 1 .9.29c-3.002 22.153-5.076 45.981-6 68.909a.48.48 0 0 1-.28.416c-1.177.542-2.52.819-3.914.819zm-6.769-3.559c2.66 2.448 6.874 3.279 10.014 1.985.894-21.932 2.837-44.675 5.634-65.985-4.759 9.368-8.506 19.407-11.152 29.88-2.834 11.217-4.347 22.695-4.496 34.121z"/><path fill="#fff" d="M82.459 24.235C75.529 10.8 63.84 2.737 48.796 1.179c-7.886-.817-16.093.939-23.3 4.238C15.193 10.134 7.92 20.028 4.264 30.747.607 41.467.188 53.014.617 64.33a237.5 237.5 0 0 0 11.162 63.456c3.744 2.866 12.701 2.036 16.267-1.049 2.399-27.41 7.061-83.086 39.572-81.228 0 0-2.134-8.329 2.539-14.65 6.159-8.33 12.3-6.623 12.3-6.623z"/><path fill="#5C5C5C" d="M18.483 130.029c-2.922 0-5.419-.656-6.995-1.862a.5.5 0 0 1-.165-.235A237.6 237.6 0 0 1 .137 64.347c-.251-6.64-.158-12.066.293-17.076.558-6.194 1.663-11.65 3.379-16.679 4.052-11.88 11.885-21.216 21.487-25.61 3.742-1.714 7.613-2.958 11.505-3.698 4.13-.787 8.183-.982 12.044-.582 7.556.782 14.317 3.19 20.097 7.156 5.76 3.953 10.452 9.388 13.943 16.157a.481.481 0 0 1-.553.684c-.019-.005-1.488-.387-3.655.205-3.647.999-6.437 3.945-8.134 6.241-1.288 1.741-2.84 4.784-2.927 9.39-.053 2.78.463 4.834.467 4.855a.48.48 0 0 1-.492.599c-3.818-.22-7.405.376-10.66 1.768-3.038 1.299-5.875 3.33-8.431 6.034-4.542 4.807-8.378 11.935-11.4 21.185-5.525 16.909-7.334 37.597-8.53 51.287l-.046.516a.48.48 0 0 1-.164.321c-1.783 1.542-4.902 2.615-8.345 2.872q-.784.058-1.533.057m-6.293-2.537c1.658 1.193 4.54 1.76 7.755 1.521 3.101-.231 6.002-1.19 7.641-2.517l.028-.316c1.2-13.734 3.015-34.488 8.574-51.501 3.067-9.387 6.974-16.636 11.615-21.547 5.344-5.657 11.807-8.39 19.216-8.131a22.3 22.3 0 0 1-.363-4.456c.047-2.69.626-6.604 3.115-9.971 1.802-2.437 4.778-5.563 8.723-6.615 1.307-.349 2.382-.379 3.102-.33-3.368-6.244-7.805-11.28-13.197-14.98-5.645-3.873-12.257-6.226-19.652-6.992-3.768-.39-7.726-.199-11.764.57-3.816.726-7.613 1.947-11.286 3.628C16.33 10.14 8.685 19.27 4.717 30.902.82 42.33.734 54.76 1.097 64.312a236.6 236.6 0 0 0 11.093 63.181z"/><path fill="#5C5C5C" d="M35.498 33.832a.5.5 0 0 1-.24-.063 56.64 56.64 0 0 1-20.63-20.451.479.479 0 1 1 .828-.485 55.67 55.67 0 0 0 20.281 20.103.481.481 0 0 1-.24.897"/><path fill="#fff" d="M57.518 38.225c-5.096 5.115-6.79 13.854-2.636 19.758 3.517 4.998 9.915 6.837 15.662 8.925q.77.278 1.53.585c4.999 2.018 12 5.582 11.066 12.086-.07.488-.191.97-.339 1.44-.358 1.132-1.863 2.362-2.5.611-.169-.464-.151-.971-.146-1.465.016-1.354.216-2.356-.653-3.954.572 1.47.639 3.113.092 4.601-.319.866-.816 1.796-1.67 2.236-.631.325-2.16.457-2.102-.62.085-1.615 1.295-3.667.268-5.187.523 2.08.245 3.065-.428 4.427-.523 1.057-1.872 1.913-3.076 1.789-.285-.03-.584-.121-.761-.346-.208-.263-.193-.644-.077-.959s.317-.59.466-.89c.706-1.418-.087-2.884-1.364-3.66-1.577-.958-3.397-.911-5.166-1.03-6.725-.451-13.055-2.825-18.843-6.298-3.695-2.216-7.089-4.939-9.883-8.229-5.362-6.312-8.43-14.709-7.612-22.947.819-8.239 5.766-16.132 13.192-19.804z"/><path fill="#5C5C5C" d="M72.818 83.948a3 3 0 0 1-.281-.015c-.481-.05-.857-.231-1.089-.526-.287-.365-.343-.896-.15-1.421a4 4 0 0 1 .317-.631q.095-.16.171-.307c.609-1.224-.187-2.431-1.183-3.037-1.251-.76-2.679-.836-4.19-.917a50 50 0 0 1-.76-.044c-6.311-.423-12.724-2.565-19.058-6.365-3.96-2.377-7.326-5.179-10.002-8.33-2.726-3.21-4.874-6.981-6.212-10.908-1.41-4.136-1.918-8.308-1.512-12.398a26.5 26.5 0 0 1 4.194-11.83c2.393-3.654 5.596-6.543 9.263-8.357a.48.48 0 0 1 .426.861c-3.513 1.738-6.585 4.511-8.885 8.022a25.5 25.5 0 0 0-4.042 11.399c-.393 3.953.1 7.988 1.465 11.994 1.3 3.813 3.386 7.477 6.034 10.596 2.609 3.071 5.895 5.806 9.764 8.128 6.203 3.72 12.47 5.817 18.628 6.23q.373.024.748.043c1.564.084 3.18.171 4.637 1.055.74.45 1.316 1.095 1.618 1.813.347.823.32 1.678-.074 2.47a6 6 0 0 1-.2.364 3 3 0 0 0-.246.479c-.074.2-.072.4.004.496.065.084.224.143.433.165.951.099 2.14-.6 2.597-1.523.665-1.347.866-2.214.392-4.098a.481.481 0 0 1 .863-.386c.814 1.203.448 2.633.124 3.893-.146.57-.284 1.11-.31 1.587-.009.164.044.212.098.247.27.175.955.102 1.305-.079.592-.305 1.062-.951 1.44-1.975.492-1.338.46-2.85-.089-4.262a.48.48 0 0 1 .869-.403c.799 1.469.764 2.504.728 3.6q-.012.286-.016.59v.087c-.006.438-.011.853.117 1.207.093.257.253.56.485.56h.006c.374-.008.92-.579 1.101-1.152.156-.492.26-.937.322-1.363.878-6.122-5.728-9.537-10.772-11.573a47 47 0 0 0-1.514-.579c-.59-.215-1.2-.43-1.79-.64-5.34-1.894-10.86-3.852-14.101-8.46-2.032-2.888-2.825-6.625-2.232-10.523.567-3.735 2.315-7.233 4.92-9.85a.48.48 0 1 1 .68.678c-2.426 2.437-4.122 5.832-4.652 9.317-.554 3.652.18 7.141 2.07 9.826 3.065 4.359 8.44 6.265 13.636 8.108.591.21 1.203.428 1.797.643a46 46 0 0 1 1.545.591c2.221.897 5.456 2.333 7.893 4.443 2.739 2.372 3.906 5.116 3.47 8.156a9.5 9.5 0 0 1-.357 1.517c-.273.862-1.113 1.804-1.996 1.822-.367.007-1.029-.136-1.413-1.191a2 2 0 0 1-.062-.2c-.43.915-.971 1.533-1.643 1.88-.52.267-1.598.462-2.267.031a1.14 1.14 0 0 1-.492-.668c-.697.678-1.66 1.11-2.568 1.11z"/><path fill="#5C5C5C" d="M62.691 76.723a.48.48 0 0 1-.48-.475c-.02-2.227.847-4.867 2.156-6.568 1.462-1.897 3.138-3.065 5.126-3.572a.48.48 0 0 1 .237.93c-1.772.452-3.278 1.508-4.602 3.228-1.19 1.544-1.976 3.944-1.958 5.973a.48.48 0 0 1-.475.485z"/><path fill="#A872FF" d="M62.875 135.932c-.18-.011-.447 3.447.08 3.625.339.114 3.81.039 3.81.039.044-.52-.144-2.466-.047-3.674-1.3.078-2.543.089-3.844.01m13.621 1.969c.011-.169-3.71-.418-3.901.075-.123.317-.043 3.57-.043 3.57.561.041 2.655-.136 3.955-.044a26 26 0 0 1-.011-3.602zm18.962-7.23c.012-.169-3.71-.417-3.901.075-.123.318-.043 3.57-.043 3.57.56.042 2.655-.135 3.954-.044a26 26 0 0 1-.01-3.602zM85.452 137.6c.18.011.447-3.447-.08-3.624-.34-.115-3.81-.04-3.81-.04-.045.521.144 2.466.047 3.674a32 32 0 0 1 3.843-.01m28.768 5.449c.179.011.446-3.447-.081-3.625-.339-.114-3.81-.039-3.81-.039-.044.52.144 2.466.047 3.674a32 32 0 0 1 3.844-.01m-9.703-3.438c.179.01.446-3.448-.081-3.625-.339-.114-3.81-.04-3.81-.04-.044.521.144 2.467.047 3.674a32 32 0 0 1 3.844-.009m15.101-3.679c-.18-.011-.447 3.447.08 3.625.339.114 3.811.039 3.811.039.044-.52-.144-2.466-.048-3.674-1.3.078-2.543.089-3.843.01"/></svg>